<?xml version="1.0" encoding="UTF-8" standalone="no"?><!DOCTYPE svg PUBLIC "-//W3C//DTD SVG 1.1//EN" "http://www.w3.org/Graphics/SVG/1.1/DTD/svg11.dtd"><svg width="100%" height="100%" viewBox="0 0 95 78" version="1.1" xmlns="http://www.w3.org/2000/svg" xmlns:xlink="http://www.w3.org/1999/xlink" xml:space="preserve" xmlns:serif="http://www.serif.com/" style="fill-rule:evenodd;clip-rule:evenodd;stroke-linejoin:round;stroke-miterlimit:2;"><path d="M12.878,46.275l-9.163,0c-1.726,0 -3.125,1.399 -3.125,3.125l-0,24.622c-0,1.726 1.399,3.125 3.125,3.125l87.78,0c1.726,0 3.125,-1.399 3.125,-3.125l-0,-24.622c-0,-1.726 -1.399,-3.125 -3.125,-3.125l-8.75,0c-1.725,0 -3.125,1.4 -3.125,3.125c-0,1.725 1.4,3.125 3.125,3.125l5.625,0c-0,0 -0,18.372 -0,18.372c-0,0 -81.53,0 -81.53,0c-0,0 -0,-18.372 -0,-18.372c-0,0 6.038,0 6.038,0c1.725,0 3.125,-1.4 3.125,-3.125c0,-1.725 -1.4,-3.125 -3.125,-3.125Zm32.863,7.326c0.075,0.106 0.157,0.208 0.246,0.305c0.625,0.686 1.486,1.029 2.347,1.019c0.45,0.01 0.905,-0.076 1.333,-0.265c0.53,-0.234 0.971,-0.604 1.292,-1.058l20.257,-18.473c1.274,-1.162 1.365,-3.14 0.203,-4.415c-1.162,-1.274 -3.14,-1.365 -4.414,-0.203l-15.475,14.111l-0,-41.252c-0,-1.724 -1.4,-3.125 -3.125,-3.125c-1.725,0 -3.125,1.401 -3.125,3.125l-0,41.352c-0,-0 -15.584,-14.211 -15.584,-14.211c-1.274,-1.162 -3.252,-1.071 -4.414,0.203c-1.162,1.275 -1.071,3.253 0.203,4.415l20.256,18.472Z" style="fill:#fff;"/></svg>