<?xml version="1.0" encoding="UTF-8" standalone="no"?><!DOCTYPE svg PUBLIC "-//W3C//DTD SVG 1.1//EN" "http://www.w3.org/Graphics/SVG/1.1/DTD/svg11.dtd"><svg width="100%" height="100%" viewBox="0 0 105 103" version="1.1" xmlns="http://www.w3.org/2000/svg" xmlns:xlink="http://www.w3.org/1999/xlink" xml:space="preserve" xmlns:serif="http://www.serif.com/" style="fill-rule:evenodd;clip-rule:evenodd;stroke-linejoin:round;stroke-miterlimit:2;"><path id="gitHub" d="M52.859,0.908c-28.797,0 -52.121,23.325 -52.121,52.122c-0,23.064 14.92,42.544 35.638,49.45c2.606,0.456 3.583,-1.107 3.583,-2.476c0,-1.238 -0.065,-5.342 -0.065,-9.707c-13.095,2.41 -16.483,-3.193 -17.526,-6.125c-0.586,-1.498 -3.127,-6.124 -5.342,-7.362c-1.825,-0.977 -4.431,-3.388 -0.065,-3.453c4.104,-0.065 7.036,3.779 8.013,5.343c4.691,7.883 12.184,5.668 15.181,4.3c0.456,-3.388 1.824,-5.669 3.322,-6.972c-11.597,-1.303 -23.715,-5.798 -23.715,-25.735c0,-5.668 2.02,-10.359 5.343,-14.007c-0.522,-1.303 -2.346,-6.646 0.521,-13.812c-0,-0 4.365,-1.369 14.333,5.342c4.17,-1.173 8.6,-1.759 13.031,-1.759c4.43,-0 8.86,0.586 13.03,1.759c9.968,-6.776 14.333,-5.342 14.333,-5.342c2.867,7.166 1.043,12.509 0.522,13.812c3.322,3.648 5.342,8.274 5.342,14.007c0,20.002 -12.183,24.432 -23.78,25.735c1.889,1.629 3.518,4.757 3.518,9.643c-0,6.971 -0.065,12.574 -0.065,14.333c-0,1.369 0.977,2.997 3.583,2.476c21.163,-7.144 35.502,-27.114 35.508,-49.45c-0,-28.797 -23.325,-52.122 -52.122,-52.122Z"/></svg>