<?xml version="1.0" encoding="UTF-8" standalone="no"?><!DOCTYPE svg PUBLIC "-//W3C//DTD SVG 1.1//EN" "http://www.w3.org/Graphics/SVG/1.1/DTD/svg11.dtd"><svg width="100%" height="100%" viewBox="0 0 255 180" version="1.1" xmlns="http://www.w3.org/2000/svg" xmlns:xlink="http://www.w3.org/1999/xlink" xml:space="preserve" xmlns:serif="http://www.serif.com/" style="fill-rule:evenodd;clip-rule:evenodd;stroke-linejoin:round;stroke-miterlimit:2;"><g id="iconYoutube"><path d="M201.175,0.406l-145.606,0c-28.566,0 -51.725,23.158 -51.725,51.724l0,72.789c0,28.566 23.159,51.724 51.725,51.724l145.606,0c28.566,0 51.724,-23.158 51.724,-51.724l0,-72.789c0,-28.566 -23.158,-51.724 -51.724,-51.724Zm-34.982,91.66l-68.103,32.48c-1.815,0.866 -3.912,-0.455 -3.912,-2.466l-0,-66.992c-0,-2.04 2.152,-3.362 3.97,-2.44l68.103,34.511c2.026,1.027 1.989,3.931 -0.058,4.907Z" style="fill:#fff;fill-rule:nonzero;"/></g></svg>