<?xml version="1.0" encoding="UTF-8" standalone="no"?><!DOCTYPE svg PUBLIC "-//W3C//DTD SVG 1.1//EN" "http://www.w3.org/Graphics/SVG/1.1/DTD/svg11.dtd"><svg width="100%" height="100%" viewBox="0 0 263 263" version="1.1" xmlns="http://www.w3.org/2000/svg" xmlns:xlink="http://www.w3.org/1999/xlink" xml:space="preserve" xmlns:serif="http://www.serif.com/" style="fill-rule:evenodd;clip-rule:evenodd;stroke-linejoin:round;stroke-miterlimit:2;"><g id="iconInsta"><g><g id="insta"><path d="M131.968,3.068c-35.087,-0 -39.486,0.148 -53.266,0.774c-13.751,0.626 -23.142,2.801 -31.36,5.983c-8.496,3.29 -15.7,7.691 -22.882,14.847c-7.182,7.156 -11.6,14.334 -14.901,22.798c-3.194,8.187 -5.378,17.544 -6.006,31.245c-0.628,13.729 -0.777,18.112 -0.777,53.07c0,34.957 0.149,39.341 0.777,53.07c0.628,13.7 2.812,23.057 6.006,31.244c3.301,8.465 7.719,15.643 14.901,22.799c7.182,7.156 14.386,11.557 22.882,14.847c8.218,3.181 17.609,5.357 31.36,5.982c13.78,0.627 18.179,0.775 53.266,0.775c35.085,-0 39.485,-0.148 53.265,-0.775c13.75,-0.625 23.142,-2.801 31.359,-5.982c8.496,-3.29 15.7,-7.691 22.883,-14.847c7.182,-7.156 11.599,-14.334 14.901,-22.799c3.193,-8.187 5.377,-17.544 6.005,-31.244c0.628,-13.729 0.777,-18.113 0.777,-53.07c0,-34.958 -0.149,-39.341 -0.777,-53.07c-0.628,-13.701 -2.812,-23.058 -6.005,-31.245c-3.302,-8.464 -7.719,-15.642 -14.901,-22.798c-7.183,-7.156 -14.387,-11.557 -22.883,-14.847c-8.217,-3.182 -17.609,-5.357 -31.359,-5.983c-13.78,-0.626 -18.18,-0.774 -53.265,-0.774Zm-0,23.192c34.495,0 38.581,0.131 52.203,0.75c12.596,0.573 19.437,2.67 23.989,4.432c6.031,2.335 10.334,5.125 14.855,9.629c4.521,4.504 7.32,8.792 9.664,14.8c1.769,4.536 3.874,11.351 4.448,23.901c0.622,13.573 0.754,17.644 0.754,52.013c-0,34.369 -0.132,38.44 -0.754,52.012c-0.574,12.55 -2.679,19.366 -4.448,23.901c-2.344,6.008 -5.143,10.296 -9.664,14.8c-4.521,4.505 -8.824,7.294 -14.855,9.629c-4.552,1.763 -11.393,3.86 -23.989,4.432c-13.62,0.619 -17.706,0.751 -52.203,0.751c-34.499,-0 -38.584,-0.132 -52.205,-0.751c-12.596,-0.572 -19.436,-2.669 -23.989,-4.432c-6.03,-2.335 -10.334,-5.124 -14.855,-9.629c-4.52,-4.504 -7.32,-8.792 -9.663,-14.8c-1.77,-4.535 -3.874,-11.351 -4.449,-23.901c-0.622,-13.572 -0.753,-17.643 -0.753,-52.012c0,-34.369 0.131,-38.44 0.753,-52.013c0.575,-12.55 2.679,-19.365 4.449,-23.901c2.343,-6.008 5.143,-10.296 9.663,-14.8c4.521,-4.504 8.825,-7.294 14.855,-9.629c4.553,-1.762 11.393,-3.859 23.989,-4.432c13.623,-0.619 17.709,-0.75 52.205,-0.75Z" style="fill:#fff;fill-rule:nonzero;"/><path d="M131.968,174.69c-23.784,0 -43.064,-19.209 -43.064,-42.905c-0,-23.697 19.28,-42.906 43.064,-42.906c23.783,-0 43.063,19.209 43.063,42.906c-0,23.696 -19.28,42.905 -43.063,42.905Zm-0,-109.003c-36.64,-0 -66.342,29.593 -66.342,66.098c0,36.505 29.702,66.098 66.342,66.098c36.639,-0 66.34,-29.593 66.34,-66.098c0,-36.505 -29.701,-66.098 -66.34,-66.098Z" style="fill:#fff;fill-rule:nonzero;"/><path d="M216.433,63.075c-0,8.531 -6.941,15.446 -15.503,15.446c-8.562,0 -15.503,-6.915 -15.503,-15.446c-0,-8.53 6.941,-15.445 15.503,-15.445c8.562,-0 15.503,6.915 15.503,15.445Z" style="fill:#fff;fill-rule:nonzero;"/></g></g></g></svg>