<?xml version="1.0" encoding="UTF-8" standalone="no"?><!DOCTYPE svg PUBLIC "-//W3C//DTD SVG 1.1//EN" "http://www.w3.org/Graphics/SVG/1.1/DTD/svg11.dtd"><svg width="100%" height="100%" viewBox="0 0 263 255" version="1.1" xmlns="http://www.w3.org/2000/svg" xmlns:xlink="http://www.w3.org/1999/xlink" xml:space="preserve" xmlns:serif="http://www.serif.com/" style="fill-rule:evenodd;clip-rule:evenodd;stroke-linejoin:round;stroke-miterlimit:2;"><g id="iconFacebook"><path d="M259.416,127.591c0,-70.347 -57.7,-127.438 -128.797,-127.438c-71.097,0 -128.797,57.091 -128.797,127.438c0,63.653 47.089,116.413 108.768,125.862l0,-89.114l-32.896,-0l0,-36.748l32.896,-0l0,-28.086c0,-31.891 19.101,-49.609 48.548,-49.609c14.06,-0 28.651,2.625 28.651,2.625l-0,31.103l-16.183,0c-16.05,0 -21.09,9.975 -21.09,19.95l-0,23.885l35.814,0l-5.704,36.749l-30.11,-0l-0,89.114c61.812,-9.318 108.9,-62.078 108.9,-125.731Z" style="fill:#fff;fill-rule:nonzero;"/></g></svg>