<svg width="100%" height="100%" viewBox="0 0 130 75" version="1.1" xmlns="http://www.w3.org/2000/svg" xmlnsXlink="http://www.w3.org/1999/xlink" xmlSpace="preserve" xmlnsSerif="http://www.serif.com/" style="fill-rule:evenodd;clip-rule:evenodd;stroke-linejoin:round;stroke-miterlimit:2;"><path id="sobre" d="M125.371,16.674c0,-7.435 -6.035,-13.47 -13.47,-13.47l-95.903,-0c-7.434,-0 -13.47,6.035 -13.47,13.47c-0,-0 -0,43.82 -0,43.82c-0,7.434 6.036,13.47 13.47,13.47c-0,0 95.903,0 95.903,0c7.435,0 13.47,-6.036 13.47,-13.47l0,-43.82Zm-9.815,51.647l-27.12,-27.12l-7.255,7.254c-8.816,8.816 -23.131,8.816 -31.947,-0l-7.21,-7.21l-27.72,27.72c0.548,0.109 1.114,0.166 1.694,0.166l95.903,0c1.306,0 2.545,-0.29 3.655,-0.81Zm0.088,-0.042l-0.088,0.042l0.088,-0.042Zm-104.887,-58.469c-2.064,1.579 -3.396,4.067 -3.396,6.864l-0,43.82c-0,2.772 1.308,5.241 3.341,6.822l28.696,-28.697l-28.736,-28.736l0.095,-0.073Zm107.766,56.227c-0.125,0.15 -0.255,0.295 -0.39,0.435c0.135,-0.14 0.265,-0.285 0.39,-0.435Zm-0.24,-55.181c0.079,0.087 0.157,0.175 0.232,0.265l-27.454,27.454l27.462,27.462c1.258,-1.501 2.015,-3.434 2.015,-5.543l0,-43.82c0,-2.24 -0.854,-4.282 -2.255,-5.818Zm-2.633,-1.965c-1.134,-0.548 -2.406,-0.855 -3.749,-0.855l-95.903,0c-0.642,0 -1.753,0.179 -1.753,0.179l37.614,37.614c7.367,7.367 19.33,7.367 26.697,0l36.988,-36.988l0.106,0.05Z" style="fill:#009def;"/></svg>